<svg xmlns="http://www.w3.org/2000/svg" version="1.1" xmlns:xlink="http://www.w3.org/1999/xlink" xmlns:svgjs="http://svgjs.dev/svgjs" viewBox="0 0 800 800"><g fill="black" transform="matrix(1.2,0,0,1.2,-80.09999999999997,-79.5)"><circle r="0.5" cx="405" cy="400" opacity="0.95"></circle><circle r="0.5" cx="405" cy="403" opacity="0.87"></circle><circle r="0.5" cx="402" cy="406" opacity="0.97"></circle><circle r="0.5" cx="398" cy="407" opacity="0.18"></circle><circle r="0.5" cx="394" cy="405" opacity="0.70"></circle><circle r="0.5" cx="392" cy="400" opacity="0.50"></circle><circle r="0.5" cx="393" cy="395" opacity="0.14"></circle><circle r="0.5" cx="397" cy="391" opacity="0.15"></circle><circle r="0.5" cx="402" cy="390" opacity="0.78"></circle><circle r="0.5" cx="408" cy="393" opacity="0.15"></circle><circle r="0.5" cx="411" cy="399" opacity="0.51"></circle><circle r="0.5" cx="410" cy="406" opacity="0.45"></circle><circle r="0.5" cx="405" cy="411" opacity="0.13"></circle><circle r="0.5" cx="397" cy="413" opacity="0.86"></circle><circle r="0.5" cx="390" cy="409" opacity="0.80"></circle><circle r="0.5" cx="386" cy="402" opacity="0.20"></circle><circle r="0.5" cx="387" cy="393" opacity="0.41"></circle><circle r="0.5" cx="393" cy="386" opacity="0.58"></circle><circle r="0.5" cx="403" cy="384" opacity="0.13"></circle><circle r="0.5" cx="412" cy="388" opacity="0.92"></circle><circle r="0.5" cx="417" cy="397" opacity="0.78"></circle><circle r="0.5" cx="416" cy="408" opacity="0.88"></circle><circle r="0.5" cx="409" cy="416" opacity="0.56"></circle><circle r="0.5" cx="398" cy="419" opacity="0.17"></circle><circle r="1" cx="387" cy="415" opacity="0.96"></circle><circle r="1" cx="380" cy="404" opacity="0.57"></circle><circle r="1" cx="381" cy="392" opacity="0.51"></circle><circle r="1" cx="389" cy="381" opacity="0.14"></circle><circle r="1" cx="402" cy="378" opacity="0.89"></circle><circle r="1" cx="415" cy="382" opacity="0.94"></circle><circle r="1" cx="423" cy="394" opacity="0.44"></circle><circle r="1" cx="423" cy="409" opacity="0.88"></circle><circle r="1" cx="414" cy="421" opacity="0.65"></circle><circle r="1" cx="399" cy="425" opacity="0.64"></circle><circle r="1" cx="384" cy="421" opacity="0.84"></circle><circle r="1" cx="374" cy="408" opacity="0.79"></circle><circle r="1" cx="374" cy="391" opacity="0.47"></circle><circle r="1" cx="384" cy="377" opacity="0.41"></circle><circle r="1" cx="400" cy="371" opacity="0.62"></circle><circle r="1" cx="417" cy="376" opacity="0.24"></circle><circle r="1" cx="428" cy="390" opacity="0.32"></circle><circle r="1" cx="429" cy="409" opacity="0.80"></circle><circle r="1" cx="419" cy="424" opacity="0.60"></circle><circle r="1" cx="401" cy="432" opacity="0.15"></circle><circle r="1" cx="382" cy="427" opacity="0.77"></circle><circle r="1" cx="369" cy="412" opacity="0.10"></circle><circle r="1" cx="367" cy="392" opacity="0.28"></circle><circle r="1" cx="378" cy="374" opacity="0.62"></circle><circle r="1" cx="397" cy="365" opacity="0.32"></circle><circle r="1" cx="418" cy="370" opacity="0.71"></circle><circle r="1" cx="433" cy="385" opacity="0.29"></circle><circle r="1" cx="436" cy="407" opacity="0.86"></circle><circle r="1" cx="425" cy="427" opacity="0.36"></circle><circle r="1" cx="405" cy="438" opacity="0.23"></circle><circle r="1" cx="382" cy="434" opacity="0.85"></circle><circle r="1" cx="365" cy="417" opacity="0.81"></circle><circle r="1" cx="361" cy="394" opacity="0.34"></circle><circle r="1" cx="371" cy="372" opacity="0.70"></circle><circle r="1" cx="393" cy="360" opacity="0.65"></circle><circle r="1" cx="418" cy="363" opacity="0.85"></circle><circle r="1" cx="437" cy="380" opacity="0.57"></circle><circle r="1" cx="443" cy="405" opacity="0.51"></circle><circle r="1" cx="432" cy="429" opacity="0.94"></circle><circle r="1.5" cx="409" cy="443" opacity="0.47"></circle><circle r="1.5" cx="382" cy="441" opacity="0.19"></circle><circle r="1.5" cx="361" cy="423" opacity="0.44"></circle><circle r="1.5" cx="354" cy="396" opacity="0.58"></circle><circle r="1.5" cx="364" cy="370" opacity="0.67"></circle><circle r="1.5" cx="388" cy="354" opacity="0.46"></circle><circle r="1.5" cx="417" cy="355" opacity="1.00"></circle><circle r="1.5" cx="440" cy="373" opacity="0.16"></circle><circle r="1.5" cx="449" cy="402" opacity="0.66"></circle><circle r="1.5" cx="439" cy="430" opacity="0.26"></circle><circle r="1.5" cx="415" cy="448" opacity="0.40"></circle><circle r="1.5" cx="384" cy="448" opacity="0.62"></circle><circle r="1.5" cx="358" cy="430" opacity="0.66"></circle><circle r="1.5" cx="348" cy="400" opacity="0.83"></circle><circle r="1.5" cx="357" cy="370" opacity="0.86"></circle><circle r="1.5" cx="382" cy="350" opacity="0.90"></circle><circle r="1.5" cx="415" cy="348" opacity="0.96"></circle><circle r="1.5" cx="443" cy="366" opacity="0.94"></circle><circle r="1.5" cx="455" cy="397" opacity="0.77"></circle><circle r="1.5" cx="447" cy="430" opacity="0.23"></circle><circle r="1.5" cx="421" cy="453" opacity="0.84"></circle><circle r="1.5" cx="386" cy="455" opacity="0.95"></circle><circle r="1.5" cx="356" cy="437" opacity="0.49"></circle><circle r="1.5" cx="342" cy="405" opacity="0.14"></circle><circle r="1.5" cx="349" cy="370" opacity="0.41"></circle><circle r="1.5" cx="376" cy="346" opacity="0.53"></circle><circle r="1.5" cx="412" cy="341" opacity="0.40"></circle><circle r="1.5" cx="445" cy="359" opacity="0.64"></circle><circle r="1.5" cx="461" cy="392" opacity="0.94"></circle><circle r="1.5" cx="455" cy="429" opacity="0.53"></circle><circle r="1.5" cx="428" cy="456" opacity="0.32"></circle><circle r="1.5" cx="390" cy="462" opacity="0.97"></circle><circle r="1.5" cx="355" cy="445" opacity="0.82"></circle><circle r="1.5" cx="336" cy="411" opacity="0.44"></circle><circle r="1.5" cx="341" cy="372" opacity="0.99"></circle><circle r="1.5" cx="368" cy="342" opacity="0.37"></circle><circle r="1.5" cx="408" cy="334" opacity="0.83"></circle><circle r="1.5" cx="445" cy="350" opacity="0.21"></circle><circle r="1.5" cx="466" cy="386" opacity="0.57"></circle><circle r="2" cx="463" cy="427" opacity="0.73"></circle><circle r="2" cx="436" cy="459" opacity="0.59"></circle><circle r="2" cx="395" cy="469" opacity="0.53"></circle><circle r="2" cx="355" cy="454" opacity="0.31"></circle><circle r="2" cx="332" cy="418" opacity="0.66"></circle><circle r="2" cx="333" cy="374" opacity="0.65"></circle><circle r="2" cx="360" cy="340" opacity="0.87"></circle><circle r="2" cx="403" cy="327" opacity="0.98"></circle><circle r="2" cx="445" cy="342" opacity="0.51"></circle><circle r="2" cx="471" cy="379" opacity="0.53"></circle><circle r="2" cx="471" cy="424" opacity="0.79"></circle><circle r="2" cx="444" cy="461" opacity="0.38"></circle><circle r="2" cx="400" cy="476" opacity="0.36"></circle><circle r="2" cx="356" cy="462" opacity="0.82"></circle><circle r="2" cx="327" cy="425" opacity="0.29"></circle><circle r="2" cx="326" cy="378" opacity="0.92"></circle><circle r="2" cx="352" cy="339" opacity="0.10"></circle><circle r="2" cx="396" cy="321" opacity="0.11"></circle><circle r="2" cx="443" cy="333" opacity="0.46"></circle><circle r="2" cx="474" cy="370" opacity="0.39"></circle><circle r="2" cx="478" cy="419" opacity="0.24"></circle><circle r="2" cx="453" cy="462" opacity="0.72"></circle><circle r="2" cx="407" cy="482" opacity="0.77"></circle><circle r="2" cx="358" cy="471" opacity="0.91"></circle><circle r="2" cx="324" cy="434" opacity="0.22"></circle><circle r="2" cx="318" cy="383" opacity="0.14"></circle><circle r="2" cx="342" cy="338" opacity="0.15"></circle><circle r="2" cx="389" cy="316" opacity="0.17"></circle><circle r="2" cx="440" cy="324" opacity="0.17"></circle><circle r="2" cx="477" cy="362" opacity="0.43"></circle><circle r="2" cx="486" cy="414" opacity="0.18"></circle><circle r="2" cx="462" cy="461" opacity="0.65"></circle><circle r="2" cx="415" cy="487" opacity="0.41"></circle><circle r="2" cx="362" cy="480" opacity="0.61"></circle><circle r="2" cx="322" cy="443" opacity="0.89"></circle><circle r="2" cx="311" cy="390" opacity="0.99"></circle><circle r="2" cx="333" cy="339" opacity="0.14"></circle><circle r="2" cx="381" cy="311" opacity="0.46"></circle><circle r="2" cx="436" cy="316" opacity="0.70"></circle><circle r="2.5" cx="479" cy="352" opacity="0.94"></circle><circle r="2.5" cx="493" cy="407" opacity="0.49"></circle><circle r="2.5" cx="472" cy="460" opacity="0.56"></circle><circle r="2.5" cx="424" cy="491" opacity="0.83"></circle><circle r="2.5" cx="366" cy="489" opacity="0.98"></circle><circle r="2.5" cx="320" cy="453" opacity="0.50"></circle><circle r="2.5" cx="304" cy="397" opacity="0.55"></circle><circle r="2.5" cx="323" cy="341" opacity="0.54"></circle><circle r="2.5" cx="372" cy="307" opacity="0.17"></circle><circle r="2.5" cx="431" cy="307" opacity="0.14"></circle><circle r="2.5" cx="480" cy="342" opacity="0.41"></circle><circle r="2.5" cx="499" cy="399" opacity="0.23"></circle><circle r="2.5" cx="482" cy="457" opacity="0.35"></circle><circle r="2.5" cx="433" cy="495" opacity="0.81"></circle><circle r="2.5" cx="372" cy="497" opacity="0.67"></circle><circle r="2.5" cx="320" cy="463" opacity="0.74"></circle><circle r="2.5" cx="298" cy="405" opacity="0.64"></circle><circle r="2.5" cx="313" cy="344" opacity="0.72"></circle><circle r="2.5" cx="362" cy="304" opacity="0.60"></circle><circle r="2.5" cx="425" cy="299" opacity="0.75"></circle><circle r="2.5" cx="479" cy="332" opacity="0.80"></circle><circle r="2.5" cx="505" cy="390" opacity="0.92"></circle><circle r="2.5" cx="492" cy="454" opacity="0.59"></circle><circle r="2.5" cx="444" cy="497" opacity="0.63"></circle><circle r="2.5" cx="379" cy="505" opacity="0.81"></circle><circle r="2.5" cx="321" cy="474" opacity="0.80"></circle><circle r="2.5" cx="292" cy="414" opacity="0.15"></circle><circle r="2.5" cx="304" cy="349" opacity="0.69"></circle><circle r="2.5" cx="351" cy="302" opacity="0.25"></circle><circle r="2.5" cx="417" cy="291" opacity="0.55"></circle><circle r="2.5" cx="478" cy="321" opacity="0.31"></circle><circle r="2.5" cx="510" cy="381" opacity="0.64"></circle><circle r="2.5" cx="501" cy="448" opacity="0.43"></circle><circle r="2.5" cx="455" cy="499" opacity="0.74"></circle><circle r="2.5" cx="387" cy="513" opacity="0.57"></circle><circle r="2.5" cx="323" cy="485" opacity="0.10"></circle><circle r="2.5" cx="288" cy="425" opacity="0.82"></circle><circle r="2.5" cx="294" cy="355" opacity="0.41"></circle><circle r="2.5" cx="340" cy="301" opacity="0.31"></circle><circle r="2.5" cx="409" cy="284" opacity="0.54"></circle><circle r="3" cx="475" cy="310" opacity="0.10"></circle><circle r="3" cx="514" cy="370" opacity="0.80"></circle><circle r="3" cx="511" cy="442" opacity="0.55"></circle><circle r="3" cx="466" cy="499" opacity="0.48"></circle><circle r="3" cx="396" cy="520" opacity="0.84"></circle><circle r="3" cx="327" cy="496" opacity="0.91"></circle><circle r="3" cx="284" cy="436" opacity="0.66"></circle><circle r="3" cx="285" cy="362" opacity="0.23"></circle><circle r="3" cx="328" cy="301" opacity="0.78"></circle><circle r="3" cx="399" cy="277" opacity="0.24"></circle><circle r="3" cx="471" cy="299" opacity="0.87"></circle><circle r="3" cx="517" cy="359" opacity="0.22"></circle><circle r="3" cx="520" cy="434" opacity="0.11"></circle><circle r="3" cx="478" cy="498" opacity="0.64"></circle><circle r="3" cx="406" cy="526" opacity="0.82"></circle><circle r="3" cx="332" cy="507" opacity="0.27"></circle><circle r="3" cx="282" cy="447" opacity="0.14"></circle><circle r="3" cx="276" cy="370" opacity="0.28"></circle><circle r="3" cx="316" cy="303" opacity="0.25"></circle><circle r="3" cx="388" cy="272" opacity="0.35"></circle><circle r="3" cx="465" cy="288" opacity="0.14"></circle><circle r="3" cx="519" cy="346" opacity="0.54"></circle><circle r="3" cx="528" cy="426" opacity="0.57"></circle><circle r="3" cx="490" cy="496" opacity="0.86"></circle><circle r="3" cx="418" cy="531" opacity="0.13"></circle><circle r="3" cx="338" cy="517" opacity="0.99"></circle><circle r="3" cx="281" cy="460" opacity="0.51"></circle><circle r="3" cx="268" cy="379" opacity="0.70"></circle><circle r="3" cx="304" cy="306" opacity="0.13"></circle><circle r="3" cx="376" cy="267" opacity="0.27"></circle><circle r="3" cx="458" cy="277" opacity="0.13"></circle><circle r="3" cx="519" cy="334" opacity="0.87"></circle><circle r="3" cx="536" cy="415" opacity="0.73"></circle><circle r="3" cx="502" cy="492" opacity="0.76"></circle><circle r="3" cx="430" cy="535" opacity="0.58"></circle><circle r="3" cx="346" cy="528" opacity="0.44"></circle><circle r="3" cx="281" cy="473" opacity="0.55"></circle><circle r="3" cx="260" cy="390" opacity="0.25"></circle><circle r="3" cx="292" cy="310" opacity="0.95"></circle><circle r="3.5" cx="364" cy="263" opacity="0.25"></circle><circle r="3.5" cx="450" cy="267" opacity="0.32"></circle><circle r="3.5" cx="519" cy="321" opacity="0.10"></circle><circle r="3.5" cx="543" cy="404" opacity="0.49"></circle><circle r="3.5" cx="515" cy="487" opacity="0.59"></circle><circle r="3.5" cx="443" cy="538" opacity="0.16"></circle><circle r="3.5" cx="354" cy="538" opacity="0.23"></circle><circle r="3.5" cx="282" cy="486" opacity="0.89"></circle><circle r="3.5" cx="254" cy="402" opacity="0.98"></circle><circle r="3.5" cx="279" cy="316" opacity="0.80"></circle><circle r="3.5" cx="350" cy="261" opacity="0.65"></circle><circle r="3.5" cx="441" cy="257" opacity="0.66"></circle><circle r="3.5" cx="516" cy="307" opacity="0.71"></circle><circle r="3.5" cx="549" cy="392" opacity="0.74"></circle><circle r="3.5" cx="527" cy="481" opacity="0.84"></circle><circle r="3.5" cx="456" cy="540" opacity="0.38"></circle><circle r="3.5" cx="365" cy="547" opacity="0.16"></circle><circle r="3.5" cx="285" cy="500" opacity="0.86"></circle><circle r="3.5" cx="248" cy="414" opacity="0.12"></circle><circle r="3.5" cx="267" cy="323" opacity="0.20"></circle><circle r="3.5" cx="336" cy="260" opacity="0.93"></circle><circle r="3.5" cx="430" cy="248" opacity="0.55"></circle><circle r="3.5" cx="513" cy="294" opacity="0.44"></circle><circle r="3.5" cx="554" cy="379" opacity="0.74"></circle><circle r="3.5" cx="538" cy="473" opacity="0.34"></circle><circle r="3.5" cx="471" cy="540" opacity="0.61"></circle><circle r="3.5" cx="376" cy="556" opacity="0.78"></circle><circle r="3.5" cx="290" cy="513" opacity="0.32"></circle><circle r="3.5" cx="244" cy="428" opacity="0.54"></circle><circle r="3.5" cx="256" cy="332" opacity="0.51"></circle><circle r="3.5" cx="322" cy="260" opacity="0.66"></circle><circle r="3.5" cx="418" cy="240" opacity="0.20"></circle><circle r="3.5" cx="508" cy="280" opacity="0.55"></circle><circle r="3.5" cx="558" cy="365" opacity="0.85"></circle><circle r="3.5" cx="550" cy="463" opacity="0.55"></circle><circle r="3.5" cx="485" cy="539" opacity="0.88"></circle><circle r="3.5" cx="389" cy="563" opacity="0.42"></circle><circle r="3.5" cx="295" cy="527" opacity="0.20"></circle><circle r="3.5" cx="241" cy="443" opacity="0.18"></circle><circle r="4" cx="245" cy="342" opacity="0.35"></circle><circle r="4" cx="307" cy="262" opacity="0.91"></circle><circle r="4" cx="405" cy="233" opacity="0.26"></circle><circle r="4" cx="501" cy="266" opacity="0.66"></circle><circle r="4" cx="560" cy="350" opacity="0.96"></circle><circle r="4" cx="560" cy="453" opacity="0.32"></circle><circle r="4" cx="500" cy="536" opacity="0.49"></circle><circle r="4" cx="402" cy="570" opacity="0.77"></circle><circle r="4" cx="303" cy="540" opacity="0.27"></circle><circle r="4" cx="239" cy="458" opacity="0.39"></circle><circle r="4" cx="235" cy="353" opacity="0.55"></circle><circle r="4" cx="292" cy="265" opacity="0.50"></circle><circle r="4" cx="390" cy="227" opacity="0.10"></circle><circle r="4" cx="493" cy="253" opacity="0.65"></circle><circle r="4" cx="561" cy="334" opacity="0.30"></circle><circle r="4" cx="570" cy="441" opacity="0.33"></circle><circle r="4" cx="515" cy="532" opacity="0.14"></circle><circle r="4" cx="417" cy="575" opacity="0.68"></circle><circle r="4" cx="312" cy="553" opacity="0.24"></circle><circle r="4" cx="239" cy="474" opacity="0.84"></circle><circle r="4" cx="225" cy="366" opacity="0.63"></circle><circle r="4" cx="277" cy="270" opacity="0.62"></circle><circle r="4" cx="375" cy="222" opacity="0.66"></circle><circle r="4" cx="483" cy="241" opacity="0.16"></circle><circle r="4" cx="561" cy="318" opacity="0.35"></circle><circle r="4" cx="579" cy="427" opacity="0.72"></circle><circle r="4" cx="530" cy="527" opacity="0.59"></circle><circle r="4" cx="433" cy="579" opacity="0.60"></circle><circle r="4" cx="322" cy="566" opacity="0.49"></circle><circle r="4" cx="240" cy="490" opacity="0.83"></circle><circle r="4" cx="217" cy="380" opacity="0.34"></circle><circle r="4" cx="262" cy="277" opacity="0.10"></circle><circle r="4" cx="359" cy="219" opacity="0.37"></circle><circle r="4" cx="472" cy="229" opacity="0.86"></circle><circle r="4" cx="559" cy="302" opacity="0.95"></circle><circle r="4" cx="587" cy="413" opacity="0.22"></circle><circle r="4" cx="545" cy="519" opacity="0.73"></circle><circle r="4" cx="449" cy="582" opacity="0.70"></circle><circle r="4" cx="334" cy="577" opacity="0.21"></circle><circle r="4.5" cx="243" cy="506" opacity="0.98"></circle><circle r="4.5" cx="210" cy="395" opacity="0.71"></circle><circle r="4.5" cx="247" cy="285" opacity="0.87"></circle><circle r="4.5" cx="343" cy="217" opacity="0.91"></circle><circle r="4.5" cx="460" cy="217" opacity="0.55"></circle><circle r="4.5" cx="555" cy="286" opacity="0.28"></circle><circle r="4.5" cx="593" cy="397" opacity="0.25"></circle><circle r="4.5" cx="560" cy="510" opacity="0.69"></circle><circle r="4.5" cx="466" cy="583" opacity="0.60"></circle><circle r="4.5" cx="347" cy="588" opacity="0.19"></circle><circle r="4.5" cx="247" cy="523" opacity="0.38"></circle><circle r="4.5" cx="204" cy="411" opacity="0.67"></circle><circle r="4.5" cx="233" cy="295" opacity="0.52"></circle><circle r="4.5" cx="325" cy="217" opacity="0.79"></circle><circle r="4.5" cx="446" cy="207" opacity="0.15"></circle><circle r="4.5" cx="550" cy="269" opacity="0.76"></circle><circle r="4.5" cx="599" cy="380" opacity="0.33"></circle><circle r="4.5" cx="574" cy="500" opacity="0.97"></circle><circle r="4.5" cx="484" cy="583" opacity="0.83"></circle><circle r="4.5" cx="362" cy="598" opacity="0.16"></circle><circle r="4.5" cx="254" cy="539" opacity="0.16"></circle><circle r="4.5" cx="199" cy="428" opacity="0.57"></circle><circle r="4.5" cx="220" cy="306" opacity="0.99"></circle><circle r="4.5" cx="307" cy="218" opacity="0.13"></circle><circle r="4.5" cx="430" cy="198" opacity="0.35"></circle><circle r="4.5" cx="543" cy="252" opacity="0.64"></circle><circle r="4.5" cx="602" cy="363" opacity="0.41"></circle><circle r="4.5" cx="587" cy="488" opacity="0.25"></circle><circle r="4.5" cx="502" cy="580" opacity="0.10"></circle><circle r="4.5" cx="378" cy="607" opacity="0.84"></circle><circle r="4.5" cx="261" cy="556" opacity="0.91"></circle><circle r="4.5" cx="196" cy="446" opacity="0.43"></circle><circle r="4.5" cx="207" cy="319" opacity="0.44"></circle><circle r="4.5" cx="289" cy="221" opacity="0.44"></circle><circle r="4.5" cx="414" cy="190" opacity="0.64"></circle><circle r="4.5" cx="534" cy="236" opacity="0.80"></circle><circle r="4.5" cx="605" cy="344" opacity="0.52"></circle><circle r="4.5" cx="599" cy="474" opacity="0.12"></circle><circle r="4.5" cx="520" cy="577" opacity="0.70"></circle><circle r="5" cx="395" cy="614" opacity="0.20"></circle><circle r="5" cx="271" cy="572" opacity="0.89"></circle><circle r="5" cx="195" cy="465" opacity="0.89"></circle><circle r="5" cx="195" cy="333" opacity="0.52"></circle><circle r="5" cx="271" cy="226" opacity="0.55"></circle><circle r="5" cx="396" cy="183" opacity="0.67"></circle><circle r="5" cx="523" cy="221" opacity="0.90"></circle><circle r="5" cx="605" cy="326" opacity="0.50"></circle><circle r="5" cx="611" cy="459" opacity="0.80"></circle><circle r="5" cx="538" cy="571" opacity="0.21"></circle><circle r="5" cx="413" cy="620" opacity="0.83"></circle><circle r="5" cx="283" cy="587" opacity="0.81"></circle><circle r="5" cx="195" cy="484" opacity="0.33"></circle><circle r="5" cx="184" cy="349" opacity="0.73"></circle><circle r="5" cx="253" cy="233" opacity="0.78"></circle><circle r="5" cx="378" cy="178" opacity="0.76"></circle><circle r="5" cx="511" cy="206" opacity="0.73"></circle><circle r="5" cx="604" cy="306" opacity="0.52"></circle><circle r="5" cx="621" cy="442" opacity="0.12"></circle><circle r="5" cx="556" cy="563" opacity="0.68"></circle><circle r="5" cx="432" cy="624" opacity="0.67"></circle><circle r="5" cx="296" cy="602" opacity="0.29"></circle><circle r="5" cx="197" cy="504" opacity="0.22"></circle><circle r="5" cx="174" cy="367" opacity="0.28"></circle><circle r="5" cx="235" cy="241" opacity="0.44"></circle><circle r="5" cx="358" cy="174" opacity="0.86"></circle><circle r="5" cx="497" cy="191" opacity="0.86"></circle><circle r="5" cx="601" cy="286" opacity="0.10"></circle><circle r="5" cx="630" cy="424" opacity="0.93"></circle><circle r="5" cx="574" cy="554" opacity="0.65"></circle><circle r="5" cx="452" cy="627" opacity="0.17"></circle><circle r="5" cx="310" cy="615" opacity="0.20"></circle><circle r="5" cx="201" cy="523" opacity="0.41"></circle><circle r="5" cx="166" cy="385" opacity="0.92"></circle><circle r="5" cx="218" cy="252" opacity="0.95"></circle><circle r="5" cx="338" cy="173" opacity="0.27"></circle><circle r="5" cx="482" cy="178" opacity="0.67"></circle><circle r="5" cx="596" cy="267" opacity="0.34"></circle><circle r="5" cx="637" cy="405" opacity="0.85"></circle><circle r="5.5" cx="591" cy="543" opacity="0.87"></circle><circle r="5.5" cx="473" cy="627" opacity="0.11"></circle><circle r="5.5" cx="327" cy="628" opacity="0.14"></circle><circle r="5.5" cx="207" cy="543" opacity="0.21"></circle><circle r="5.5" cx="159" cy="405" opacity="0.29"></circle><circle r="5.5" cx="201" cy="264" opacity="0.16"></circle><circle r="5.5" cx="317" cy="173" opacity="0.87"></circle><circle r="5.5" cx="465" cy="166" opacity="0.32"></circle><circle r="5.5" cx="589" cy="247" opacity="0.64"></circle><circle r="5.5" cx="643" cy="385" opacity="0.34"></circle><circle r="5.5" cx="607" cy="530" opacity="0.10"></circle><circle r="5.5" cx="494" cy="626" opacity="0.63"></circle><circle r="5.5" cx="344" cy="639" opacity="0.83"></circle><circle r="5.5" cx="215" cy="563" opacity="0.96"></circle><circle r="5.5" cx="154" cy="425" opacity="0.35"></circle><circle r="5.5" cx="185" cy="278" opacity="0.94"></circle><circle r="5.5" cx="296" cy="175" opacity="0.84"></circle><circle r="5.5" cx="446" cy="156" opacity="0.15"></circle><circle r="5.5" cx="580" cy="228" opacity="0.73"></circle><circle r="5.5" cx="647" cy="364" opacity="0.26"></circle></g></svg>